<svg xmlns="http://www.w3.org/2000/svg" width="200" height="200" viewBox="100 50 350 350"><g fill="#010101"><path d="M185.044 358.869h-9.961l-1.143-25.986-14.092 25.986h-6.24l-6.709-26.807-8.818 26.807h-10.225l13.389-40.605h10.928l6.416 25.781 13.916-25.781h10.635l1.904 40.605zM226.617 358.869h-10.811l-1.084-8.994H202.33l-4.102 8.994h-10.605l20.566-40.605h10.986l7.442 40.605zm-12.598-14.707l-1.934-15.527-7.061 15.527h8.995zM267.712 358.869h-11.338l-4.043-8.467c-1.191-2.559-2.227-4.478-3.105-5.757s-1.651-2.07-2.314-2.373c-.664-.303-1.553-.454-2.666-.454h-1.553l-2.578 17.051h-10.283l5.889-40.605h15.85c5.761 0 9.672 1.27 11.733 3.809s3.091 5.283 3.091 8.232c0 3.105-.854 5.522-2.563 7.251s-4.097 2.798-7.163 3.208c1.562.898 2.769 1.953 3.618 3.164s1.86 3.096 3.032 5.654l4.393 9.287zm-12.187-28.857c0-1.562-.571-2.925-1.714-4.087s-3.453-1.743-6.929-1.743h-1.611l-1.699 11.719h4.102c2.89 0 4.922-.61 6.094-1.831s1.757-2.574 1.757-4.058zM313.705 318.264l-17.578 18.223 14.912 22.383h-11.807l-14.59-21.65-3.282 21.65h-10.342l6.064-40.605h10.401l-2.578 17.256 16.611-17.256h12.189zM346.426 318.264L345.4 325.5h-16.436l-1.26 8.818h14.268l-1.025 7.266h-14.385l-1.377 10.02h19.98l-1.025 7.266h-30.439l5.889-40.605h26.836zM389.953 338.156c0 4.512-.86 8.301-2.578 11.367-1.719 3.066-4.273 5.391-7.662 6.973s-7.583 2.373-12.582 2.373H348.41l5.83-40.605h14.941c3.534 0 6.625.527 9.271 1.582s4.82 2.51 6.52 4.365 2.953 3.97 3.764 6.343 1.217 4.907 1.217 7.602zm-10.576.147c0-2.031-.387-4.004-1.158-5.918s-2.192-3.54-4.262-4.878c-2.07-1.338-4.941-2.007-8.613-2.007h-1.67l-3.779 26.104h5.449c2.597 0 4.828-.391 6.693-1.172s3.33-1.821 4.395-3.12 1.821-2.71 2.271-4.233c.449-1.524.674-3.116.674-4.776z"/></g><g fill="#010101"><path d="M406.922 307.149l-3.703 26.35c-.609 4.324-2.72 6.486-6.33 6.486-.773 0-1.553-.07-2.338-.211l-.756-3.023c.879.188 1.67.281 2.373.281 1.219 0 2.118-.302 2.698-.905s.964-1.55 1.151-2.839l3.674-26.139h3.231zM423.027 307.8l-.475 3.357a7.655 7.655 0 00-4.307-1.301c-1.312 0-2.361.34-3.146 1.02s-1.178 1.576-1.178 2.689c0 .551.188 1.131.562 1.74s1.471 1.644 3.287 3.103 3.015 2.739 3.595 3.841.87 2.203.87 3.305c0 1.758-.662 3.275-1.986 4.553s-3.088 1.916-5.291 1.916c-1.957 0-3.938-.586-5.941-1.758l.51-3.604c2.238 1.559 4.16 2.338 5.766 2.338.867 0 1.69-.284 2.47-.852.779-.568 1.169-1.339 1.169-2.312 0-.62-.197-1.265-.59-1.933-.394-.667-1.502-1.745-3.324-3.232-1.824-1.486-3.014-2.778-3.568-3.874-.555-1.097-.832-2.185-.832-3.263 0-1.899.785-3.491 2.355-4.775 1.57-1.283 3.422-1.926 5.555-1.926 1.488.001 2.988.323 4.499.968z"/></g><g fill="#010101"><path d="M357 200v-92c0-8.284-6.716-15-15-15H172c-8.284 0-15 6.716-15 15v92h200zM157 205v73c0 8.284 6.716 15 15 15h170c8.284 0 15-6.716 15-15v-73H157z"/></g><g fill="#FFF"><path d="M208.737 180.15v-33.125l16.987 21.234 16.987-21.234v33.125h16.987v-57.756h-16.987l-16.987 21.234-16.987-21.234H191.75v57.756h16.987zM322.55 151.272h-16.987v-28.878h-16.986v28.878H271.59L297.069 181l25.481-29.728z"/></g><g fill="#FFF"><path d="M217 241.154a3.846 3.846 0 01-3.845 3.846h-5.31a3.845 3.845 0 01-3.845-3.846v-.309a3.846 3.846 0 013.845-3.846h5.31a3.845 3.845 0 013.845 3.846v.309zM207.859 256.5c0 1.933-1.1 3.5-2.457 3.5h-12.046c-1.357 0-2.457-1.567-2.457-3.5s1.1-3.5 2.457-3.5h12.046c1.357 0 2.457 1.567 2.457 3.5zM328.044 238.021a23.259 23.259 0 00-4.907-8.269c-2.215-2.418-5.049-4.314-8.498-5.689-3.45-1.375-7.479-2.063-12.086-2.063h-19.477l-7.6 52.932h24.403c6.518 0 11.984-1.032 16.402-3.094 4.416-2.062 7.746-5.092 9.986-9.09 2.24-3.996 3.361-8.936 3.361-14.817.001-3.513-.528-6.816-1.584-9.91zm-13.08 16.326c-.586 1.986-1.573 3.826-2.96 5.519-1.389 1.694-3.297 3.049-5.729 4.067s-5.34 1.528-8.727 1.528h-7.103l4.927-34.027h2.176c4.787 0 8.529.872 11.229 2.616 2.698 1.744 4.55 3.863 5.557 6.358a20.46 20.46 0 011.508 7.713c0 2.165-.293 4.24-.878 6.226zM246.148 241.043l1.373-9.61h21.424l1.336-9.434h-36.237c-2.125 0-3.846 1.877-3.846 4s1.721 4 3.846 4H237.933a3.491 3.491 0 010 6.982h-4.806l-.001.019h-8.983c-1.299 0-2.353 1.786-2.353 3.988 0 2.203 1.053 3.989 2.353 3.989h7.826l-.003.023h3.189a3.845 3.845 0 013.845 3.846v.309a3.846 3.846 0 01-3.845 3.846H216.2a3.5 3.5 0 100 7h13.954a3.845 3.845 0 013.845 3.846v.309a3.846 3.846 0 01-3.845 3.846h-7.109c-2.125 0-3.846 1.377-3.846 3.5s1.721 3.5 3.846 3.5h25.636c.273 0 .538-.024.795-.068h17.828l1.336-9.471h-26.045l1.795-13.062h18.751l1.336-9.471h-18.598l.029-.205a6.249 6.249 0 00.24-1.682z"/></g></svg>