<svg xmlns="http://www.w3.org/2000/svg" xmlns:xlink="http://www.w3.org/1999/xlink" version="1.1" id="Layer_1" x="0px" y="0px" width="300px" height="439.589px" viewBox="100 100 400 400" xml:space="preserve">
<g>
	<g id="Marked_Letters">
		<path fill="#010101" d="M185.044,358.869h-9.961l-1.143-25.986l-14.092,25.986h-6.24l-6.709-26.807l-8.818,26.807h-10.225    l13.389-40.605h10.928l6.416,25.781l13.916-25.781h10.635L185.044,358.869z"/>
		<path fill="#010101" d="M226.617,358.869h-10.811l-1.084-8.994H202.33l-4.102,8.994h-10.605l20.566-40.605h10.986L226.617,358.869    z M214.019,344.162l-1.934-15.527l-7.061,15.527H214.019z"/>
		<path fill="#010101" d="M267.712,358.869h-11.338l-4.043-8.467c-1.191-2.559-2.227-4.478-3.105-5.757s-1.651-2.07-2.314-2.373    c-0.664-0.303-1.553-0.454-2.666-0.454h-1.553l-2.578,17.051h-10.283l5.889-40.605h15.85c5.761,0,9.672,1.27,11.733,3.809    c2.061,2.539,3.091,5.283,3.091,8.232c0,3.105-0.854,5.522-2.563,7.251c-1.709,1.729-4.097,2.798-7.163,3.208    c1.562,0.898,2.769,1.953,3.618,3.164s1.86,3.096,3.032,5.654L267.712,358.869z M255.525,330.012c0-1.562-0.571-2.925-1.714-4.087    s-3.453-1.743-6.929-1.743h-1.611l-1.699,11.719h4.102c2.89,0,4.922-0.61,6.094-1.831S255.525,331.496,255.525,330.012z"/>
		<path fill="#010101" d="M313.705,318.264l-17.578,18.223l14.912,22.383h-11.807l-14.59-21.65l-3.282,21.65h-10.342l6.064-40.605    h10.401l-2.578,17.256l16.611-17.256H313.705z"/>
		<path fill="#010101" d="M346.426,318.264L345.4,325.5h-16.436l-1.26,8.818h14.268l-1.025,7.266h-14.385l-1.377,10.02h19.98    l-1.025,7.266h-30.439l5.889-40.605H346.426z"/>
		<path fill="#010101" d="M389.953,338.156c0,4.512-0.86,8.301-2.578,11.367c-1.719,3.066-4.273,5.391-7.662,6.973    s-7.583,2.373-12.582,2.373H348.41l5.83-40.605h14.941c3.534,0,6.625,0.527,9.271,1.582s4.82,2.51,6.52,4.365    s2.953,3.97,3.764,6.343S389.953,335.461,389.953,338.156z M379.377,338.303c0-2.031-0.387-4.004-1.158-5.918    s-2.192-3.54-4.262-4.878c-2.07-1.338-4.941-2.007-8.613-2.007h-1.67l-3.779,26.104h5.449c2.597,0,4.828-0.391,6.693-1.172    s3.33-1.821,4.395-3.12s1.821-2.71,2.271-4.233C379.152,341.555,379.377,339.963,379.377,338.303z"/>
	</g>
	<g>
		<path fill="#010101" d="M406.922,307.149l-3.703,26.35c-0.609,4.324-2.72,6.486-6.33,6.486c-0.773,0-1.553-0.07-2.338-0.211    l-0.756-3.023c0.879,0.188,1.67,0.281,2.373,0.281c1.219,0,2.118-0.302,2.698-0.905s0.964-1.55,1.151-2.839l3.674-26.139H406.922z    "/>
		<path fill="#010101" d="M423.027,307.8l-0.475,3.357c-1.312-0.867-2.748-1.301-4.307-1.301c-1.312,0-2.361,0.34-3.146,1.02    s-1.178,1.576-1.178,2.689c0,0.551,0.188,1.131,0.562,1.74s1.471,1.644,3.287,3.103s3.015,2.739,3.595,3.841    s0.87,2.203,0.87,3.305c0,1.758-0.662,3.275-1.986,4.553s-3.088,1.916-5.291,1.916c-1.957,0-3.938-0.586-5.941-1.758l0.51-3.604    c2.238,1.559,4.16,2.338,5.766,2.338c0.867,0,1.69-0.284,2.47-0.852c0.779-0.568,1.169-1.339,1.169-2.312    c0-0.62-0.197-1.265-0.59-1.933c-0.394-0.667-1.502-1.745-3.324-3.232c-1.824-1.486-3.014-2.778-3.568-3.874    c-0.555-1.097-0.832-2.185-0.832-3.263c0-1.899,0.785-3.491,2.355-4.775c1.57-1.283,3.422-1.926,5.555-1.926    C420.016,306.833,421.516,307.155,423.027,307.8z"/>
	</g>
	<g>
		<g>
			<path fill="#010101" d="M357,200v-92c0-8.284-6.716-15-15-15H172c-8.284,0-15,6.716-15,15v92H357z"/>
			<path fill="#010101" d="M157,205v73c0,8.284,6.716,15,15,15h170c8.284,0,15-6.716,15-15v-73H157z"/>
		</g>
		<g>
			<path fill="#FFFFFF" d="M208.737,180.15v-33.125l16.987,21.234l16.987-21.234v33.125h16.987v-57.756h-16.987l-16.987,21.234     l-16.987-21.234H191.75v57.756H208.737z"/>
			<path fill="#FFFFFF" d="M322.55,151.272h-16.987v-28.878h-16.986v28.878h-16.987L297.069,181L322.55,151.272z"/>
		</g>
		<g>
			<path fill="#FFFFFF" d="M217,241.154c0,2.124-1.722,3.846-3.845,3.846h-5.31c-2.124,0-3.845-1.722-3.845-3.846v-0.309     c0-2.124,1.722-3.846,3.845-3.846h5.31c2.124,0,3.845,1.722,3.845,3.846V241.154z"/>
			<path fill="#FFFFFF" d="M207.859,256.5c0,1.933-1.1,3.5-2.457,3.5h-12.046c-1.357,0-2.457-1.567-2.457-3.5l0,0     c0-1.933,1.1-3.5,2.457-3.5h12.046C206.759,253,207.859,254.567,207.859,256.5L207.859,256.5z"/>
			<path fill="#FFFFFF" d="M328.044,238.021c-1.058-3.094-2.692-5.85-4.907-8.269c-2.215-2.418-5.049-4.314-8.498-5.689     c-3.45-1.375-7.479-2.063-12.086-2.063h-19.477l-7.6,52.932h24.403c6.518,0,11.984-1.032,16.402-3.094     c4.416-2.062,7.746-5.092,9.986-9.09c2.24-3.996,3.361-8.936,3.361-14.817C329.629,244.418,329.1,241.115,328.044,238.021z      M314.964,254.347c-0.586,1.986-1.573,3.826-2.96,5.519c-1.389,1.694-3.297,3.049-5.729,4.067s-5.34,1.528-8.727,1.528h-7.103     l4.927-34.027h2.176c4.787,0,8.529,0.872,11.229,2.616c2.698,1.744,4.55,3.863,5.557,6.358c1.005,2.494,1.508,5.066,1.508,7.713     C315.842,250.286,315.549,252.361,314.964,254.347z"/>
			<path fill="#FFFFFF" d="M246.148,241.043l1.373-9.61h21.424l1.336-9.434h-10.601h-24.38h-1.256c-2.125,0-3.846,1.877-3.846,4     s1.721,4,3.846,4h0.096h3.793c1.928,0,3.491,1.563,3.491,3.491c0,1.928-1.563,3.491-3.491,3.491h-4.806L233.126,237h-8.983     c-1.299,0-2.353,1.786-2.353,3.988c0,2.203,1.053,3.989,2.353,3.989h7.826L231.966,245h3.189c2.124,0,3.845,1.722,3.845,3.846     v0.309c0,2.124-1.722,3.846-3.845,3.846h-4.349h-0.96H216.2c-1.933,0-3.5,1.567-3.5,3.5s1.567,3.5,3.5,3.5h8.645h4.945h0.364     c2.124,0,3.845,1.722,3.845,3.846v0.309c0,2.124-1.722,3.846-3.845,3.846h-1.524h-3.785h-1.8c-2.125,0-3.846,1.377-3.846,3.5     s1.721,3.5,3.846,3.5h25.636c0.273,0,0.538-0.024,0.795-0.068h17.828l1.336-9.471h-26.045l1.795-13.062h18.751l1.336-9.471     h-18.598l0.029-0.205C246.055,242.213,246.144,241.647,246.148,241.043z"/>
		</g>
	</g>
</g>
</svg>